<?xml version="1.0" encoding="utf-8"?>
<!-- Generator: Adobe Illustrator 24.0.0, SVG Export Plug-In . SVG Version: 6.00 Build 0)  -->
<svg version="1.1" id="Layer_1" xmlns="http://www.w3.org/2000/svg" xmlns:xlink="http://www.w3.org/1999/xlink" x="0px" y="0px"
	 viewBox="0 0 141.73 36.3" style="enable-background:new 0 0 141.73 36.3;" xml:space="preserve">
<style type="text/css">
	.st0{fill:#797B85;}
	.st1{fill:#BECDD5;}
	.st2{fill:#96BE2C;}
	.st3{fill:none;}
</style>
<g>
	<g>
		<g>
			<path class="st0" d="M33.94,20.15c-4.08,0-6.78-1.97-6.78-5.97V0.42h2v5.5h3.72v2.03h-3.72v6.22c0,2.61,1.89,3.92,4.78,3.92
				V20.15z"/>
			<path class="st0" d="M36.32,15.1c0-4.09,2.97-5.09,6.39-5.09c0.83,0,1.72,0.06,2.58,0.14c-0.25-1.25-1.11-2.42-3.81-2.42
				c-1.39,0-2.47,0.36-3.39,0.95l-1.28-1.66c1.33-0.75,2.81-1.31,4.67-1.31c5.87,0,5.89,3.28,5.89,6.03v8.2h-2v-0.25
				c-0.97,0.33-2.11,0.5-3.03,0.5C38.96,20.1,36.32,18.87,36.32,15.1z M45.38,12.2c-0.92-0.11-1.86-0.2-2.67-0.2
				c-2.42,0-4.36,0.61-4.36,3.09c0,2.3,1.81,3.03,4,3.03c1.06,0,2.11-0.23,3.03-0.61V12.2z"/>
			<path class="st0" d="M49.6,0.42h2v5.75c1-0.31,2.09-0.5,3.22-0.5c2.81,0,5.45,1.14,5.45,4.92v4.64c0,2.17-1.08,3.53-2.59,4.25
				c-0.75,0.36-1.94,0.61-3,0.61c-1.06,0-2.08-0.11-3.09-0.47v0.22h-2V0.42z M58.27,10.59c0-2.2-1.67-2.89-3.45-2.89
				c-1.25,0-2.39,0.25-3.22,0.56v9.17c0.95,0.42,1.97,0.64,3.09,0.64c1.86,0,3.58-0.72,3.58-2.81V10.59z"/>
			<path class="st0" d="M73.27,14.54c0,2.86-1.55,5.59-5.39,5.59c-3.72,0-5.39-2.72-5.39-5.59v-3.28c0-3.59,1.94-5.64,5.39-5.64
				c3.39,0,5.39,2.17,5.39,5.64V14.54z M71.24,11.26c0-2.22-1.2-3.59-3.36-3.59c-2.2,0-3.39,1.25-3.39,3.59v3.28
				c0,1.86,1.06,3.56,3.39,3.56c2.42,0,3.36-1.7,3.36-3.56V11.26z"/>
			<path class="st0" d="M75.49,5.92h2v0.72c0.86-0.56,2.17-1.03,3.39-1.03c0.64,0,1.45,0.14,2.47,0.47l-0.39,2.05
				c-0.92-0.31-1.67-0.47-2.09-0.47c-2.22,0-3.39,1.25-3.39,3.59v8.59h-2V5.92z"/>
		</g>
		<g>
			<path class="st1" d="M95.42,5.95V21.1c0,2.89-1.86,4.17-4.56,4.17h-0.25c-1.58-0.03-3.33-0.55-4.78-1.45l0.5-0.89
				c1.61,0.89,3.19,1.36,4.47,1.36c2.03,0,3.59-1.05,3.59-3.14v-1.69c-1.14,0.44-2.67,0.72-4.08,0.72c-1.06,0-2.11-0.14-2.86-0.53
				c-1.45-0.69-2.42-1.97-2.42-4.11v-5.17c0-2.14,0.97-3.39,2.42-4.09c0.81-0.36,1.92-0.58,3.05-0.58c1.31,0,2.67,0.22,3.89,0.75
				v-0.5H95.42z M94.39,18.35V7.65c-1.11-0.59-2.53-0.89-3.89-0.89c-2.3,0-4.45,0.94-4.45,3.58v5.12c0,2.83,2.08,3.7,4.31,3.7
				C91.92,19.15,93.42,18.79,94.39,18.35z"/>
			<path class="st1" d="M98.19,5.92h1.03v1.53c0.92-1.11,2.42-1.83,4.25-1.83c0.64,0,1.28,0.08,2,0.3l-0.22,1.06
				c-0.61-0.2-1.25-0.31-1.78-0.31c-2.75,0-4.25,1.56-4.25,4.47v8.7h-1.03V5.92z"/>
			<path class="st1" d="M116.75,14.65c0,2.83-1.5,5.47-5.22,5.47c-3.67,0-5.28-2.64-5.28-5.47v-3.5c0-3.56,1.89-5.53,5.28-5.53
				c3.31,0,5.22,2.11,5.22,5.53V14.65z M115.7,11.15c0-2.78-1.5-4.47-4.17-4.47c-2.75,0-4.25,1.56-4.25,4.47v3.5
				c0,2.3,1.31,4.42,4.25,4.42c2.97,0,4.17-2.11,4.17-4.42V11.15z"/>
			<path class="st1" d="M128.56,18.74c-1.45,0.86-3.2,1.41-4.78,1.44h-0.25c-2.7,0-4.56-1.31-4.56-4.17v-5.5
				c0-3.11,2.12-4.84,5.17-4.84c3.17,0,4.97,1.81,4.97,4.78v2.78H120v2.81c0,2.09,1.56,3.14,3.59,3.14c1.28,0,2.86-0.44,4.47-1.36
				L128.56,18.74z M128.09,10.42c0-2.89-2.14-3.69-3.97-3.69c-1.95,0-4.12,0.94-4.12,3.75v1.72h8.09V10.42z"/>
			<path class="st1" d="M131.34,5.95h1.03v0.5c1.22-0.53,2.58-0.75,3.89-0.75c1.14,0,2.25,0.22,3.05,0.58
				c1.45,0.69,2.42,1.94,2.42,4.09v5c0,3.67-2.58,4.75-5.34,4.75c-1.33,0-2.86-0.36-4.03-0.75v5.89h-1.03V5.95z M136.26,6.76
				c-1.36,0-2.78,0.3-3.89,0.89v10.62c1,0.42,2.61,0.81,4.03,0.81c2.22,0,4.31-0.86,4.31-3.7v-5.03
				C140.7,7.7,138.56,6.76,136.26,6.76z"/>
		</g>
	</g>
	<g>
		<path class="st2" d="M5.47,7.08c1.55-0.9,3.01-1.75,4.46-1.75c1.64,0,3.09,1.05,4.49,2.06c1.3,0.94,2.53,1.83,3.76,1.83h1.88
			C19.64,4.06,15.31,0,10.03,0C4.74,0,0.42,4.05,0,9.2C1.97,9.1,3.75,8.08,5.47,7.08z"/>
		<path class="st2" d="M18.18,10.93c-1.79,0-3.3-1.1-4.77-2.16c-1.23-0.89-2.39-1.73-3.48-1.73c-0.99,0-2.26,0.74-3.6,1.51
			C4.49,9.62,2.42,10.81,0,10.91c0.45,5.12,4.76,9.14,10.02,9.14c5.25,0,9.56-4.01,10.02-9.12H18.18z"/>
	</g>
	<g>
		<path class="st0" d="M29.39,34.89l-1.47-3.91h0.44l1.15,3.08c0.38-1.02,0.79-2.07,1.16-3.08h0.44l-1.45,3.91H29.39z"/>
		<path class="st0" d="M34.36,34.54c-0.44,0.25-0.94,0.43-1.4,0.44h-0.07c-0.77,0-1.3-0.38-1.3-1.2v-1.49c0-0.88,0.6-1.38,1.47-1.38
			c0.9,0,1.42,0.52,1.42,1.37v0.83h-2.46v0.69c0,0.51,0.39,0.77,0.89,0.77c0.33,0,0.76-0.13,1.24-0.4L34.36,34.54z M34.05,32.27
			c0-0.72-0.54-0.92-1-0.92c-0.48,0-1.03,0.23-1.03,0.94v0.39h2.03V32.27z"/>
		<path class="st0" d="M35.24,30.98h0.43v0.3c0.26-0.23,0.63-0.38,1.07-0.38c0.18,0,0.38,0.03,0.63,0.11l-0.09,0.45
			c-0.23-0.07-0.42-0.12-0.55-0.12c-0.69,0-1.07,0.4-1.07,1.13v2.42h-0.43V30.98z"/>
		<path class="st0" d="M38.19,33.69c0.04,0.44,0.35,0.88,1.06,0.88c0.6,0,0.98-0.32,0.98-0.73c0-0.44-0.54-0.62-1.07-0.78
			c-0.64-0.2-1.27-0.4-1.27-1.07c0-0.51,0.36-1.11,1.34-1.11c0.98,0,1.35,0.68,1.35,1.26h-0.43c0-0.38-0.23-0.82-0.92-0.82
			c-0.67,0-0.9,0.37-0.9,0.67c0,0.32,0.5,0.49,0.96,0.64c0.66,0.2,1.37,0.45,1.37,1.21c0,0.66-0.55,1.15-1.41,1.15
			c-0.99,0-1.43-0.65-1.49-1.29H38.19z"/>
		<path class="st0" d="M43.25,34.97c-1.1,0-1.82-0.54-1.82-1.66v-3.88h0.43v1.55h1.09v0.44h-1.09v1.89c0,0.82,0.55,1.22,1.4,1.22
			V34.97z"/>
		<path class="st0" d="M46.55,34.54c-0.44,0.25-0.94,0.43-1.4,0.44h-0.07c-0.77,0-1.3-0.38-1.3-1.2v-1.49c0-0.88,0.6-1.38,1.47-1.38
			c0.9,0,1.42,0.52,1.42,1.37v0.83h-2.46v0.69c0,0.51,0.39,0.77,0.89,0.77c0.33,0,0.76-0.13,1.24-0.4L46.55,34.54z M46.23,32.27
			c0-0.72-0.54-0.92-1-0.92c-0.48,0-1.03,0.23-1.03,0.94v0.39h2.03V32.27z"/>
		<path class="st0" d="M47.43,30.98h0.43v0.3c0.26-0.23,0.63-0.38,1.07-0.38c0.18,0,0.38,0.03,0.63,0.11l-0.09,0.45
			c-0.23-0.07-0.42-0.12-0.55-0.12c-0.69,0-1.07,0.4-1.07,1.13v2.42h-0.43V30.98z"/>
		<path class="st0" d="M52.88,34.89L51.3,32.8c-0.09,0.09-0.2,0.2-0.55,0.49v1.6h-0.44v-5.46h0.44v3.27
			c0.65-0.56,1.26-1.18,1.93-1.79h0.64l-1.7,1.57l1.79,2.4H52.88z"/>
		<path class="st0" d="M56,34.97c-1.1,0-1.82-0.54-1.82-1.66v-3.88h0.43v1.55h1.09v0.44h-1.09v1.89c0,0.82,0.55,1.22,1.4,1.22V34.97
			z"/>
		<path class="st3" d="M56.77,34.63c0-0.13,0.12-0.25,0.26-0.25c0.12,0,0.25,0.12,0.25,0.25c0,0.13-0.12,0.26-0.25,0.26
			C56.88,34.89,56.77,34.76,56.77,34.63z"/>
		<path class="st0" d="M61.24,34.89l-0.76-2.56l-0.75,2.56h-0.41l-1.29-3.91h0.58l0.87,2.67c0.24-0.83,0.51-1.71,0.8-2.67h0.42
			l0.79,2.67l0.88-2.67h0.57l-1.29,3.91H61.24z"/>
		<path class="st0" d="M63.42,33.55c0-1.15,0.83-1.43,1.79-1.43c0.23,0,0.48,0.02,0.72,0.04c-0.07-0.35-0.31-0.68-1.07-0.68
			c-0.39,0-0.69,0.1-0.95,0.26l-0.36-0.47c0.37-0.21,0.79-0.37,1.31-0.37c1.65,0,1.65,0.92,1.65,1.69v2.3h-0.56v-0.07
			c-0.27,0.09-0.59,0.14-0.85,0.14C64.17,34.96,63.42,34.61,63.42,33.55z M65.97,32.74c-0.26-0.03-0.52-0.05-0.75-0.05
			c-0.68,0-1.22,0.17-1.22,0.87c0,0.65,0.51,0.85,1.12,0.85c0.3,0,0.59-0.06,0.85-0.17V32.74z"/>
		<path class="st0" d="M67.29,33.55c0-1.15,0.83-1.43,1.79-1.43c0.23,0,0.48,0.02,0.72,0.04c-0.07-0.35-0.31-0.68-1.07-0.68
			c-0.39,0-0.69,0.1-0.95,0.26l-0.36-0.47c0.37-0.21,0.79-0.37,1.31-0.37c1.65,0,1.65,0.92,1.65,1.69v2.3h-0.56v-0.07
			c-0.27,0.09-0.59,0.14-0.85,0.14C68.03,34.96,67.29,34.61,67.29,33.55z M69.83,32.74c-0.26-0.03-0.52-0.05-0.75-0.05
			c-0.68,0-1.22,0.17-1.22,0.87c0,0.65,0.51,0.85,1.12,0.85c0.3,0,0.59-0.06,0.85-0.17V32.74z"/>
		<path class="st0" d="M71.16,30.98h0.56v0.2c0.24-0.16,0.61-0.29,0.95-0.29c0.18,0,0.41,0.04,0.7,0.13l-0.11,0.58
			c-0.26-0.09-0.47-0.13-0.59-0.13c-0.62,0-0.95,0.35-0.95,1.01v2.41h-0.56V30.98z"/>
		<path class="st0" d="M76.65,34.89h-0.56v-0.07c-0.28,0.09-0.6,0.14-0.87,0.14c-0.3,0-0.63-0.06-0.86-0.17
			c-0.42-0.2-0.71-0.58-0.71-1.19v-1.3c0-1.06,0.74-1.38,1.53-1.38c0.32,0,0.62,0.06,0.9,0.15v-1.62h0.56V34.89z M75.23,34.39
			c0.29,0,0.61-0.06,0.87-0.18v-2.57c-0.24-0.08-0.61-0.16-0.9-0.16c-0.5,0-0.97,0.19-0.97,0.81v1.31
			C74.22,34.18,74.7,34.39,75.23,34.39z"/>
		<path class="st0" d="M80.26,34.51c-0.46,0.26-0.99,0.46-1.44,0.47h-0.07c-0.79,0-1.33-0.39-1.33-1.23v-1.43
			c0-0.89,0.61-1.4,1.48-1.4c0.92,0,1.44,0.54,1.44,1.39v0.87h-2.36v0.58c0,0.44,0.34,0.66,0.78,0.66c0.3,0,0.72-0.13,1.22-0.41
			L80.26,34.51z M79.78,32.29c0-0.62-0.48-0.81-0.89-0.81c-0.42,0-0.91,0.21-0.91,0.83v0.3h1.8V32.29z"/>
		<path class="st0" d="M84.1,30.99v4.08c0,0.85-0.54,1.23-1.32,1.23H82.7c-0.45-0.01-0.97-0.2-1.45-0.48l0.28-0.48
			c0.49,0.27,0.92,0.41,1.22,0.41c0.43,0,0.78-0.23,0.78-0.67v-0.25c-0.28,0.09-0.61,0.15-0.92,0.15c-0.3,0-0.59-0.04-0.81-0.16
			c-0.41-0.22-0.7-0.59-0.7-1.21v-1.34c0-0.61,0.29-0.98,0.71-1.19c0.22-0.11,0.55-0.17,0.86-0.17c0.3,0,0.57,0.02,0.87,0.13v-0.06
			H84.1z M83.54,34.26v-2.6c-0.27-0.12-0.56-0.18-0.87-0.18c-0.52,0-1.01,0.2-1.01,0.79v1.33c0,0.62,0.47,0.81,0.97,0.81
			C82.98,34.41,83.3,34.35,83.54,34.26z"/>
		<path class="st0" d="M87.7,34.51c-0.46,0.26-0.99,0.46-1.44,0.47h-0.07c-0.79,0-1.33-0.39-1.33-1.23v-1.43
			c0-0.89,0.61-1.4,1.48-1.4c0.92,0,1.44,0.54,1.44,1.39v0.87h-2.36v0.58c0,0.44,0.34,0.66,0.78,0.66c0.3,0,0.72-0.13,1.22-0.41
			L87.7,34.51z M87.23,32.29c0-0.62-0.48-0.81-0.89-0.81c-0.42,0-0.91,0.21-0.91,0.83v0.3h1.8V32.29z"/>
		<path class="st0" d="M88.55,30.98h0.56v0.2c0.24-0.16,0.61-0.29,0.95-0.29c0.18,0,0.4,0.04,0.69,0.13l-0.11,0.58
			c-0.26-0.09-0.47-0.13-0.58-0.13c-0.62,0-0.95,0.35-0.95,1.01v2.41h-0.56V30.98z"/>
		<path class="st0" d="M91.52,29.83c0-0.21,0.1-0.3,0.31-0.3s0.3,0.09,0.3,0.3c0,0.22-0.09,0.31-0.3,0.31S91.52,30.05,91.52,29.83z
			 M91.55,34.89v-3.91h0.56v3.91H91.55z"/>
		<path class="st0" d="M95.6,34.78c-0.41,0.11-0.79,0.18-1.1,0.18c-0.22,0-0.46-0.02-0.68-0.1c-0.62-0.23-0.92-0.65-0.92-1.44v-0.89
			c0-1.1,0.65-1.62,1.5-1.62c0.32,0,0.74,0.13,1.21,0.34l-0.23,0.51c-0.37-0.19-0.72-0.28-0.98-0.28c-0.51,0-0.94,0.34-0.94,1.05
			v0.89c0,0.51,0.16,0.79,0.54,0.9c0.14,0.05,0.31,0.07,0.51,0.07c0.23,0,0.59-0.07,0.97-0.15L95.6,34.78z"/>
		<path class="st0" d="M98.8,34.89v-2.62c0-0.59-0.47-0.79-0.98-0.79c-0.29,0-0.64,0.09-0.89,0.19v3.22h-0.56v-5.45h0.56v1.62
			c0.27-0.09,0.6-0.15,0.87-0.15c0.3,0,0.63,0.07,0.84,0.17c0.42,0.2,0.72,0.58,0.72,1.19v2.61H98.8z"/>
		<path class="st0" d="M102.03,34.97c-1.15,0-1.9-0.55-1.9-1.68v-3.86h0.56v1.54h1.04v0.57h-1.04v1.75c0,0.73,0.53,1.1,1.34,1.1
			V34.97z"/>
		<path class="st3" d="M102.79,34.63c0-0.13,0.12-0.25,0.26-0.25c0.12,0,0.25,0.12,0.25,0.25c0,0.13-0.12,0.26-0.25,0.26
			C102.91,34.89,102.79,34.76,102.79,34.63z"/>
		<path class="st0" d="M107.05,33.41c0,0.79-0.43,1.55-1.49,1.55c-1.04,0-1.5-0.76-1.5-1.55v-0.95c0-1,0.54-1.57,1.5-1.57
			c0.94,0,1.49,0.6,1.49,1.57V33.41z M106.61,32.46c0-0.7-0.38-1.13-1.05-1.13c-0.69,0-1.07,0.4-1.07,1.13v0.95
			c0,0.58,0.33,1.12,1.07,1.12c0.76,0,1.05-0.53,1.05-1.12V32.46z"/>
		<path class="st0" d="M110.34,34.89v-2.64c0-0.66-0.54-0.9-1.12-0.9c-0.34,0-0.69,0.08-0.97,0.22v3.32h-0.43v-3.91h0.43v0.1
			c0.3-0.11,0.66-0.17,0.97-0.17s0.63,0.06,0.85,0.17c0.42,0.2,0.7,0.56,0.7,1.17v2.63H110.34z"/>
		<path class="st0" d="M114.49,34.89h-0.43v-0.1c-0.3,0.11-0.67,0.17-0.97,0.17c-0.31,0-0.63-0.06-0.86-0.17
			c-0.41-0.19-0.7-0.56-0.7-1.17v-1.35c0-1.04,0.73-1.36,1.51-1.36c0.34,0,0.7,0.08,1.01,0.18v-1.66h0.43V34.89z M113.08,34.52
			c0.34,0,0.69-0.07,0.97-0.21v-2.77c-0.26-0.09-0.69-0.2-1.01-0.2c-0.56,0-1.08,0.22-1.08,0.92v1.36
			C111.96,34.29,112.5,34.52,113.08,34.52z"/>
		<path class="st0" d="M118.02,34.54c-0.44,0.25-0.94,0.43-1.4,0.44h-0.07c-0.77,0-1.3-0.38-1.3-1.2v-1.49
			c0-0.88,0.6-1.38,1.47-1.38c0.9,0,1.42,0.52,1.42,1.37v0.83h-2.46v0.69c0,0.51,0.39,0.77,0.89,0.77c0.33,0,0.76-0.13,1.24-0.4
			L118.02,34.54z M117.71,32.27c0-0.72-0.54-0.92-1-0.92c-0.48,0-1.03,0.23-1.03,0.94v0.39h2.03V32.27z"/>
		<path class="st0" d="M118.9,30.98h0.43v0.3c0.26-0.23,0.63-0.38,1.07-0.38c0.18,0,0.38,0.03,0.63,0.11l-0.09,0.45
			c-0.22-0.07-0.42-0.12-0.54-0.12c-0.69,0-1.07,0.4-1.07,1.13v2.42h-0.43V30.98z"/>
		<path class="st0" d="M124.32,34.89v-2.64c0-0.66-0.54-0.9-1.12-0.9c-0.34,0-0.69,0.08-0.97,0.22v3.32h-0.43v-3.91h0.43v0.1
			c0.3-0.11,0.66-0.17,0.97-0.17s0.63,0.06,0.85,0.17c0.42,0.2,0.7,0.56,0.7,1.17v2.63H124.32z"/>
		<path class="st0" d="M128.28,34.54c-0.44,0.25-0.94,0.43-1.4,0.44h-0.07c-0.77,0-1.3-0.38-1.3-1.2v-1.49
			c0-0.88,0.6-1.38,1.47-1.38c0.9,0,1.42,0.52,1.42,1.37v0.83h-2.46v0.69c0,0.51,0.39,0.77,0.89,0.77c0.33,0,0.76-0.13,1.24-0.4
			L128.28,34.54z M127.97,32.27c0-0.72-0.54-0.92-1-0.92c-0.48,0-1.03,0.23-1.03,0.94v0.39h2.03V32.27z"/>
		<path class="st0" d="M133.52,34.89v-2.63c0-0.63-0.37-0.9-0.83-0.9c-0.23,0-0.45,0.06-0.67,0.16l-0.27,0.13
			c0.05,0.2,0.05,0.49,0.05,0.69v2.55h-0.43v-2.85c0-0.51-0.41-0.68-0.87-0.68c-0.34,0-0.66,0.09-0.91,0.2v3.33h-0.44v-3.91h0.44
			v0.1c0.29-0.11,0.63-0.17,0.91-0.17c0.43,0,0.83,0.12,1.05,0.37l0.31-0.16c0.29-0.16,0.58-0.2,0.84-0.2
			c0.72,0,1.25,0.48,1.25,1.34v2.63H133.52z"/>
		<path class="st0" d="M137.49,34.54c-0.44,0.25-0.94,0.43-1.4,0.44h-0.07c-0.77,0-1.3-0.38-1.3-1.2v-1.49
			c0-0.88,0.6-1.38,1.47-1.38c0.9,0,1.42,0.52,1.42,1.37v0.83h-2.46v0.69c0,0.51,0.39,0.77,0.89,0.77c0.33,0,0.76-0.13,1.24-0.4
			L137.49,34.54z M137.18,32.27c0-0.72-0.54-0.92-1-0.92c-0.48,0-1.03,0.23-1.03,0.94v0.39h2.03V32.27z"/>
		<path class="st0" d="M140.9,34.89v-2.64c0-0.66-0.54-0.9-1.12-0.9c-0.34,0-0.69,0.08-0.97,0.22v3.32h-0.43v-3.91h0.43v0.1
			c0.3-0.11,0.66-0.17,0.97-0.17s0.63,0.06,0.85,0.17c0.42,0.2,0.7,0.56,0.7,1.17v2.63H140.9z"/>
	</g>
</g>
</svg>
