<?xml version="1.0" encoding="UTF-8" standalone="no"?>
<svg
   data-name="Layer 1"
   viewBox="0 0 120 120"
   x="0px"
   y="0px"
   version="1.1"
   id="svg22"
   sodipodi:docname="noun-emotion-1693780.svg"
   width="120"
   height="120"
   inkscape:version="1.3 (0e150ed, 2023-07-21)"
   xmlns:inkscape="http://www.inkscape.org/namespaces/inkscape"
   xmlns:sodipodi="http://sodipodi.sourceforge.net/DTD/sodipodi-0.dtd"
   xmlns="http://www.w3.org/2000/svg"
   xmlns:svg="http://www.w3.org/2000/svg"
   xmlns:rdf="http://www.w3.org/1999/02/22-rdf-syntax-ns#"
   xmlns:cc="http://creativecommons.org/ns#"
   xmlns:dc="http://purl.org/dc/elements/1.1/">
  <defs
     id="defs22" />
  <sodipodi:namedview
     id="namedview22"
     pagecolor="#ffffff"
     bordercolor="#000000"
     borderopacity="0.25"
     inkscape:showpageshadow="2"
     inkscape:pageopacity="0.0"
     inkscape:pagecheckerboard="0"
     inkscape:deskcolor="#d1d1d1"
     inkscape:zoom="0.5"
     inkscape:cx="33"
     inkscape:cy="40"
     inkscape:window-width="1440"
     inkscape:window-height="847"
     inkscape:window-x="0"
     inkscape:window-y="25"
     inkscape:window-maximized="0"
     inkscape:current-layer="svg22" />
  <title
     id="title1">emotion-mood-felling-mask-behavior-role</title>
  <path
     d="m 23.64,109.272 3.834,1.634 a 13.786,13.786 0 0 0 11.106,-0.138 l 2.774,-1.266 a 37.146,37.146 0 0 0 16.102,-15.944 12.928,12.928 0 0 0 5.662,0.244 37.074,37.074 0 0 0 16.522,15.47 l 3.834,1.634 a 13.786,13.786 0 0 0 11.106,-0.138 l 2.772,-1.266 C 111.342,103.118 120,84.2 120,70.328 V 30 a 2,2 0 0 0 -2.384,-1.962 L 100.4,31.4 A 61.06,61.06 0 0 1 92,32.38 V 12 A 2,2 0 0 0 89.616,10.038 L 72.4,13.4 A 61.082,61.082 0 0 1 49.6,13.542 L 30.36,10.032 A 2,2 0 0 0 28,12 V 32.33 A 61.2,61.2 0 0 1 21.6,31.546 L 2.3600001,28.032 A 2,2 0 0 0 1.1115555e-7,30 V 69.66 C 1.1115555e-7,83.868 9.038,103.052 23.64,109.272 Z M 101.172,35.33 116,32.428 v 37.9 c 0,12.632 -7.764,29.81 -20.308,35.536 l -2.774,1.266 a 9.91,9.91 0 0 1 -7.876,0.096 L 81.2,105.6 A 32.568,32.568 0 0 1 67.01,92.576 l 2.334,-1.066 a 32.852,32.852 0 0 0 11.574,-9.28 l 1.158,-0.4 a 6.2,6.2 0 0 1 3.832,0 l 17.426,6.068 A 1.978,1.978 0 0 0 104,88 2,2 0 0 0 105.362,84.534 L 89.6,69.9 A 5.868,5.868 0 0 0 88.51,69.158 46.838,46.838 0 0 0 92,52.328 V 36.442 a 64.898,64.898 0 0 0 9.172,-1.112 z m -14.754,38.4 c 0.154,-0.302 0.338,-0.574 0.488,-0.882 l 8.742,8.122 -8.416,-2.932 a 9.8,9.8 0 0 0 -2.908,-0.524 c 0.154,-0.246 0.278,-0.524 0.43,-0.776 q 0.882,-1.468 1.664,-3.004 z M 32,14.4 48.886,17.484 A 65.118,65.118 0 0 0 73.172,17.332 L 88,14.428 v 37.9 a 43.894,43.894 0 0 1 -3.846,17 c -0.02,0.038 -0.054,0.066 -0.072,0.106 a 44.654,44.654 0 0 1 -5.882,9.83 1.748,1.748 0 0 0 -0.116,0.2 29.276,29.276 0 0 1 -10.39,8.4 L 64.92,89.13 a 9.922,9.922 0 0 1 -7.846,0.106 L 57.024,89.216 53.2,87.6 C 40.108,82.012 32,64.6 32,51.66 Z M 4.0000001,32.4 20.886,35.484 A 65.336,65.336 0 0 0 28,36.376 V 51.66 A 49.932,49.932 0 0 0 37.94,80 H 18 v 4 h 23.362 a 31.866,31.866 0 0 0 10.278,7.272 l 2.048,0.874 a 32.8,32.8 0 0 1 -14,13.718 l -2.774,1.266 a 9.92,9.92 0 0 1 -7.876,0.096 L 25.2,105.6 C 12.108,100.012 4.0000001,82.6 4.0000001,69.66 Z"
     id="path1"
     style="stroke-width:2" />
  <path
     d="m 38.574,50.6 a 2,2 0 0 0 -0.27,2.462 l 15.758,25.212 a 7,7 0 0 0 11.876,0 L 81.696,53.06 A 2,2 0 0 0 78.97,50.286 L 61.546,60.74 a 3,3 0 0 1 -3.09,0 L 41.03,50.284 A 2,2 0 0 0 38.574,50.6 Z M 56.4,64.172 a 7,7 0 0 0 7.2,0 L 73.894,58 62.546,76.156 a 3.082,3.082 0 0 1 -5.092,0 L 46.106,58 Z"
     id="path2"
     style="stroke-width:2" />
  <path
     d="m 72.476,39.914 a 10.924,10.924 0 0 0 1.35,0.086 12,12 0 0 0 7.788,-3.03 l 2.684,-2.288 -2.6,-3.044 -2.684,2.29 a 7.728,7.728 0 0 1 -6.04,2.018 9.574,9.574 0 0 1 -6.4,-4.34 l -3.272,2.302 a 13.492,13.492 0 0 0 9.174,6.006 z"
     id="path3"
     style="stroke-width:2" />
  <path
     d="m 46.174,40 a 10.9,10.9 0 0 0 1.35,-0.086 13.492,13.492 0 0 0 9.172,-6 L 53.424,31.6 a 9.574,9.574 0 0 1 -6.4,4.34 7.732,7.732 0 0 1 -6.04,-2.018 l -2.684,-2.29 -2.6,3.044 2.684,2.288 A 12,12 0 0 0 46.174,40 Z"
     id="path4"
     style="stroke-width:2" />
  <path
     d="m 99.046,52.648 a 7.276,7.276 0 0 1 9.688,-1.376 l 2.146,1.448 2.24,-3.32 -2.148,-1.45 A 11.2,11.2 0 0 0 96.058,50 l -1.552,1.744 2.988,2.656 z"
     id="path5"
     style="stroke-width:2" />
  <rect
     x="10"
     y="52"
     width="12"
     height="4"
     id="rect5"
     style="stroke-width:2" />
  <rect
     x="112"
     y="0"
     width="4"
     height="4"
     id="rect6"
     style="stroke-width:2" />
  <rect
     x="112"
     y="8"
     width="4"
     height="4"
     id="rect7"
     style="stroke-width:2" />
  <rect
     x="116"
     y="4"
     width="4"
     height="4"
     id="rect8"
     style="stroke-width:2" />
  <rect
     x="108"
     y="4"
     width="4"
     height="4"
     id="rect9"
     style="stroke-width:2" />
  <rect
     x="4"
     y="0"
     width="4"
     height="4"
     id="rect10"
     style="stroke-width:2" />
  <rect
     x="4"
     y="8"
     width="4"
     height="4"
     id="rect11"
     style="stroke-width:2" />
  <rect
     x="8"
     y="4"
     width="4"
     height="4"
     id="rect12"
     style="stroke-width:2" />
  <rect
     x="1.1155551e-08"
     y="4"
     width="4"
     height="4"
     id="rect13"
     style="stroke-width:2" />
  <rect
     x="112"
     y="108"
     width="4"
     height="4"
     id="rect14"
     style="stroke-width:2" />
  <rect
     x="112"
     y="116"
     width="4"
     height="4"
     id="rect15"
     style="stroke-width:2" />
  <rect
     x="116"
     y="112"
     width="4"
     height="4"
     id="rect16"
     style="stroke-width:2" />
  <rect
     x="108"
     y="112"
     width="4"
     height="4"
     id="rect17"
     style="stroke-width:2" />
  <rect
     x="4"
     y="108"
     width="4"
     height="4"
     id="rect18"
     style="stroke-width:2" />
  <rect
     x="4"
     y="116"
     width="4"
     height="4"
     id="rect19"
     style="stroke-width:2" />
  <rect
     x="8"
     y="112"
     width="4"
     height="4"
     id="rect20"
     style="stroke-width:2" />
  <rect
     x="1.1155551e-08"
     y="112"
     width="4"
     height="4"
     id="rect21"
     style="stroke-width:2" />
  <metadata
     id="metadata22">
    <rdf:RDF>
      <cc:Work
         rdf:about="">
        <dc:title>emotion-mood-felling-mask-behavior-role</dc:title>
      </cc:Work>
    </rdf:RDF>
  </metadata>
</svg>
