<?xml version="1.0" encoding="UTF-8" standalone="no"?>
<svg
   version="1.1"
   x="0px"
   y="0px"
   viewBox="0 0 120 120"
   xml:space="preserve"
   id="svg6"
   sodipodi:docname="noun-thinking-102173.svg"
   width="120"
   height="120"
   inkscape:version="1.3 (0e150ed, 2023-07-21)"
   xmlns:inkscape="http://www.inkscape.org/namespaces/inkscape"
   xmlns:sodipodi="http://sodipodi.sourceforge.net/DTD/sodipodi-0.dtd"
   xmlns="http://www.w3.org/2000/svg"
   xmlns:svg="http://www.w3.org/2000/svg"><defs
     id="defs6" /><sodipodi:namedview
     id="namedview6"
     pagecolor="#ffffff"
     bordercolor="#000000"
     borderopacity="0.25"
     inkscape:showpageshadow="2"
     inkscape:pageopacity="0.0"
     inkscape:pagecheckerboard="0"
     inkscape:deskcolor="#d1d1d1"
     inkscape:zoom="2.0977778"
     inkscape:cx="45.047669"
     inkscape:cy="56.25"
     inkscape:window-width="1440"
     inkscape:window-height="847"
     inkscape:window-x="0"
     inkscape:window-y="25"
     inkscape:window-maximized="0"
     inkscape:current-layer="svg6" /><g
     id="g1"
     transform="matrix(1.7284572,0,0,1.7284572,-13.250914,-15.706557)"><path
       d="m 72.7,70.6 c -3.9,-3 -7,-6.8 -8.6,-11.5 -1.6,-5 2.2,-8.5 4,-12.7 2.7,-6.6 3.6,-13.7 1.8,-20.7 C 66.4,12.9 51.5,9.5 39.9,9.1 26.8,8.7 19.4,17.6 18.4,30 c -0.4,4.2 1.3,8.9 -1.9,12.3 -1.3,1.4 -4.1,3 -4.4,5.2 -0.3,1.8 0.1,3.3 1.4,4.6 0.4,0.4 1.1,0.5 1.7,0.6 3.4,0.4 2.9,3.1 2.7,5.4 -0.1,0.6 0.6,1.3 1.3,1.3 0.9,-0.1 1.8,-0.1 2.7,-0.2 1.6,-0.1 1.6,-2.6 0,-2.5 -0.9,0 -1.8,0.1 -2.7,0.2 0.4,0.4 0.8,0.8 1.3,1.3 0.3,-3 1.1,-7.2 -3.2,-7.7 -5.9,-0.6 0.3,-5.6 1.8,-7.1 1.4,-1.4 1.8,-3.2 2,-5 0.4,-3.1 -0.3,-6.3 0,-9.5 0.3,-3.5 1.4,-6.9 3.1,-9.9 3.8,-6.6 11.5,-7.5 18.4,-7.1 6.5,0.4 13.5,2.1 18.9,5.8 7.2,4.8 7.8,15.1 6.1,22.6 -1.4,6.4 -6.6,11.1 -6.2,17.9 0.4,5.6 5.3,11 9.5,14.3 1.3,0.8 3,-0.9 1.8,-1.9 z"
       id="path1" /></g><g
     id="g2"
     transform="matrix(1.7284572,0,0,1.7284572,-13.250914,-15.706557)"><path
       d="m 40,77.3 c 0.1,-2.2 0.6,-6.2 -0.8,-8.1 -1.7,-2.2 -5,-1.8 -7.4,-1.5 -3.6,0.3 -11,2.2 -9.9,-3.6 0.2,-1.2 0.8,-1.9 0.1,-3.1 -0.4,-0.6 -0.7,-1.3 -1,-1.2 0.9,-0.3 1.8,-0.5 2.7,-0.8 1.5,-0.5 0.9,-2.9 -0.7,-2.4 -1,0.3 -6.4,1.2 -4.6,3.6 1.5,1.9 1,3 0.8,5.2 -0.2,1.5 0.4,2.8 1.3,4 1.9,2.4 8,1.1 10.5,0.9 1.7,-0.2 5.8,-1.1 6.4,1.2 0.5,1.8 0.3,4 0.2,5.9 -0.2,1.5 2.3,1.5 2.4,-0.1 z"
       id="path2" /></g><path
     d="m 90.283669,32.690242 h -0.345691 c -0.172846,-1.209919 -0.518537,-2.246993 -1.037075,-3.456914 l 0.345692,-0.345691 c 1.728457,-1.382766 2.765531,-2.938377 2.765531,-4.321143 0,-0.345691 -0.172845,-0.691383 -0.345691,-1.037074 -0.864228,-1.20992 -3.456915,-0.864228 -5.703908,0.864228 l -0.518538,0.345691 C 84.579761,24.047957 83.542687,23.52942 82.505612,23.183728 v -0.345691 c 0,-0.518537 0.172845,-0.864228 0.172845,-1.382766 0,-2.246994 -0.864228,-3.975451 -2.074148,-4.148297 -1.555611,-0.172845 -2.938377,1.901303 -3.456914,4.666835 v 0.518536 c -1.037074,0.172847 -2.074148,0.345692 -3.111223,0.86423 l -0.518537,-0.691383 c -1.382766,-1.728458 -2.938377,-2.765532 -4.321143,-2.765532 -0.345691,0 -0.691383,0.172845 -1.037074,0.345692 -1.209921,0.864228 -0.691383,3.456914 0.864228,5.703908 l 0.518538,0.518536 c -0.691383,0.86423 -1.382766,1.728458 -1.728457,2.765532 h -0.691383 c -0.518538,0 -0.864229,-0.172845 -1.382766,-0.172845 -2.246995,0 -3.975452,0.864228 -4.148297,2.074148 -0.172847,1.555611 1.901302,2.938377 4.666834,3.456915 h 0.518537 c 0,1.209919 0.345692,2.41984 0.691383,3.456914 l -0.172846,0.172845 c -1.728457,1.382766 -2.765532,2.938378 -2.765532,4.148298 0,0.345691 0.172847,0.691383 0.345692,1.037074 0.864229,1.209919 3.456914,0.691383 5.703909,-0.864228 l 0.172845,-0.172846 c 0.864229,0.864229 2.074149,1.555611 3.284069,2.074148 v 0.518537 c 0,0.518538 -0.172846,0.864229 -0.172846,1.382766 0,2.246995 0.864229,3.975452 2.074149,4.148297 1.555612,0.172846 2.938377,-1.901302 3.456914,-4.666834 v -0.345691 c 1.382766,-0.172847 2.592686,-0.518538 3.802606,-1.037075 1.382766,1.728457 2.938377,2.765532 4.148297,2.765532 0.345692,0 0.691383,-0.172846 1.037075,-0.345692 1.209919,-0.864229 0.691383,-3.456914 -1.037075,-5.703908 v 0 c 0.864228,-1.037074 1.382766,-2.074149 1.901303,-3.284069 h 0.172846 c 0.518537,0 0.864228,0 1.20992,0 2.246994,0 3.975452,-0.864228 4.148297,-2.074149 0.345691,-1.209919 -1.728457,-2.765531 -4.493989,-3.111223 z m -6.568137,1.901304 c 0,0.518536 -0.172845,0.864228 -0.345692,1.382766 -0.172845,0.518536 -0.345691,0.864228 -0.691383,1.209919 -0.691382,0.691383 -1.382765,1.382766 -2.246993,1.728457 -0.345692,0.172846 -0.864229,0.345692 -1.382766,0.345692 -0.518538,0 -1.037074,0 -1.382766,0 -0.345691,0 -0.864228,-0.172846 -1.382766,-0.345692 -0.518536,-0.172845 -0.864228,-0.518536 -1.209919,-0.691383 -0.691383,-0.518536 -1.382766,-1.382765 -1.728457,-2.246993 -0.172847,-0.518538 -0.345692,-0.86423 -0.345692,-1.382766 0,-0.518538 0,-1.037075 0,-1.382766 0,-0.518538 0.172845,-1.037074 0.345692,-1.382766 0.172845,-0.518537 0.345691,-0.864229 0.691382,-1.20992 0.518537,-0.691383 1.382766,-1.382766 2.246994,-1.728457 0.345692,-0.172846 0.864229,-0.345692 1.382766,-0.345692 0.518537,0 0.864228,0 1.382766,0 0.518537,0 0.864228,0.172846 1.382766,0.345692 0.518536,0.172846 0.864228,0.518537 1.209919,0.691382 0.691383,0.518538 1.382766,1.382766 1.728457,2.246995 0.172847,0.345692 0.345692,0.864228 0.345692,1.382766 0.172846,0.345691 0.172846,0.864228 0,1.382766 z"
     id="path3"
     style="stroke-width:1.72845" /><path
     d="m 61.936972,21.628117 h -0.345691 c -0.172847,-1.037074 -0.518538,-2.074148 -0.864229,-3.111223 l 0.345691,-0.172846 c 1.555612,-1.209918 2.592686,-2.76553 2.592686,-3.97545 0,-0.345691 -0.172846,-0.691383 -0.345691,-0.864229 -0.864229,-1.037074 -3.111223,-0.691383 -5.185372,0.864229 L 57.61583,14.71429 c -0.864229,-0.691383 -1.728458,-1.209921 -2.592687,-1.555612 v -0.345692 c 0,-0.345691 0,-0.864228 0,-1.209919 0,-2.0741492 -0.691383,-3.6297607 -1.901302,-3.8026064 -1.382766,-0.1728458 -2.765532,1.7284572 -3.111223,4.3211424 v 0.345692 c -1.037074,0.172846 -1.901303,0.345691 -2.765532,0.691383 l -0.518537,-0.691383 c -1.20992,-1.555611 -2.765532,-2.5926859 -3.975451,-2.5926859 -0.345692,0 -0.691383,0.1728459 -0.864229,0.3456919 -1.037075,0.864228 -0.691383,3.284068 0.864229,5.185371 l 0.345691,0.518537 c -0.691383,0.691383 -1.20992,1.555611 -1.555612,2.592685 h -0.691383 c -0.345691,0 -0.864228,0 -1.209919,0 -2.074149,0 -3.62976,0.691383 -3.802606,1.901303 -0.172845,1.382766 1.728457,2.765531 4.321142,3.111223 h 0.345692 c 0,1.037074 0.345691,2.246994 0.691383,3.111223 l -0.172845,0.172845 c -1.555611,1.555612 -2.41984,3.111223 -2.41984,4.148297 0,0.345692 0.172846,0.691383 0.345691,0.864229 0.864228,1.037075 3.111223,0.691383 5.185372,-0.864229 h 0.172845 c 0.864229,0.864229 1.901303,1.382766 2.938377,1.901304 v 0.345691 c 0,0.345691 -0.172846,0.864228 -0.172846,1.20992 0,2.074148 0.691383,3.62976 1.901304,3.802605 1.382765,0.172847 2.765531,-1.728457 3.111223,-4.321142 v -0.345692 c 1.209919,-0.172846 2.41984,-0.345691 3.456914,-0.864229 1.20992,1.555612 2.765532,2.592687 3.802605,2.592687 0.345691,0 0.691383,-0.172847 0.864229,-0.345692 1.037074,-0.864229 0.691383,-3.284069 -0.864229,-5.185371 v 0 c 0.691383,-0.864229 1.382766,-1.901304 1.728457,-3.111223 h 0.172846 c 0.345692,0 0.864228,0 1.20992,0 2.074148,0 3.62976,-0.691383 3.802606,-1.901304 0.172846,-1.209919 -1.728458,-2.592685 -4.321143,-3.111222 z m -5.876754,1.728458 c 0,0.518536 -0.172846,0.864228 -0.345692,1.209919 -0.172845,0.345691 -0.345691,0.864228 -0.691383,1.037074 -0.518536,0.691383 -1.209919,1.20992 -2.074148,1.555611 -0.345692,0.172847 -0.864228,0.345692 -1.20992,0.345692 -0.518537,0 -0.864229,0 -1.382766,0 -0.518537,0 -0.864229,-0.172845 -1.20992,-0.345692 -0.345692,-0.172845 -0.864228,-0.345691 -1.037074,-0.691383 -0.691383,-0.518536 -1.20992,-1.209919 -1.555611,-2.074148 -0.172847,-0.345691 -0.345692,-0.864228 -0.345692,-1.20992 0,-0.345691 0,-0.864228 0,-1.382765 0,-0.518537 0.172845,-0.864229 0.345692,-1.20992 0.172845,-0.345691 0.345691,-0.864229 0.691382,-1.037074 0.518537,-0.691383 1.20992,-1.209921 2.074149,-1.555612 0.345692,-0.172846 0.864228,-0.345692 1.20992,-0.345692 0.345691,0 0.864229,0 1.382765,0 0.518538,0 0.86423,0.172846 1.209921,0.345692 0.345691,0.172846 0.864228,0.345691 1.037074,0.691383 0.691383,0.518537 1.20992,1.20992 1.555611,2.074148 0.172846,0.345692 0.345692,0.864229 0.345692,1.209921 0,0.518536 0,1.037074 0,1.382766 z"
     id="path4"
     style="stroke-width:1.72845" /><path
     d="m 61.936972,46.690745 h -0.172846 c 0,-0.691383 -0.345692,-1.209919 -0.518537,-1.901302 l 0.172845,-0.172847 c 0.86423,-0.691382 1.555612,-1.55561 1.555612,-2.246993 0,-0.172846 0,-0.345692 -0.172846,-0.518537 -0.518536,-0.691383 -1.901302,-0.345691 -3.111223,0.518537 l -0.345691,0.172846 C 58.825749,42.196757 58.307213,41.851066 57.788675,41.67822 v -0.172845 c 0,-0.172847 0,-0.518538 0,-0.691383 0,-1.209921 -0.518537,-2.246995 -1.20992,-2.246995 -0.864229,-0.172845 -1.555612,1.037074 -1.901303,2.592686 v 0.172845 c -0.518537,0 -1.20992,0.172847 -1.728457,0.518538 L 52.77615,41.332528 c -0.691383,-0.864228 -1.555612,-1.555611 -2.246995,-1.555611 -0.172846,0 -0.345692,0 -0.518537,0.172846 -0.691383,0.518537 -0.345691,1.901303 0.518537,3.111223 l 0.172846,0.345691 c -0.345692,0.518537 -0.691383,1.037074 -1.037074,1.555611 h -0.345692 c -0.172846,0 -0.518538,0 -0.691383,0 -1.20992,0 -2.246995,0.518538 -2.246995,1.20992 -0.172845,0.864229 1.037075,1.728458 2.592687,1.901303 h 0.172845 c 0,0.691383 0.172846,1.382766 0.345691,1.901303 v 0 c -0.864228,0.691383 -1.555611,1.555611 -1.555611,2.246994 0,0.172846 0,0.345692 0.172846,0.518538 0.518537,0.691383 1.901303,0.345691 3.111223,-0.518538 v 0 c 0.518537,0.518538 1.037074,0.864229 1.728457,1.037074 v 0.172847 c 0,0.172845 0,0.518536 0,0.691383 0,1.209919 0.518537,2.246993 1.20992,2.246993 0.864228,0.172847 1.555611,-1.037074 1.901303,-2.592685 v -0.172846 c 0.691383,0 1.382765,-0.172845 2.074148,-0.518537 0.691383,0.864228 1.555611,1.555611 2.246994,1.555611 0.172846,0 0.345692,0 0.518538,-0.172845 0.691383,-0.518538 0.345691,-1.901303 -0.518538,-3.111223 v 0 c 0.518538,-0.518538 0.691383,-1.20992 1.037074,-1.901303 v 0 c 0.172847,0 0.518538,0 0.691383,0 1.209921,0 2.246995,-0.518537 2.246995,-1.20992 0.345692,-0.518538 -0.864229,-1.382766 -2.41984,-1.555612 z m -3.456914,1.037074 c 0,0.345692 -0.172845,0.518538 -0.172845,0.691383 -0.172847,0.172847 -0.172847,0.518538 -0.345692,0.691383 -0.345691,0.345692 -0.691383,0.691383 -1.20992,0.864229 -0.172846,0.172846 -0.518537,0.172846 -0.691383,0.172846 -0.345692,0 -0.518537,0 -0.864228,0 -0.345692,0 -0.518538,-0.172846 -0.691383,-0.172846 C 54.33176,49.801968 53.986069,49.801968 53.813224,49.629123 53.467532,49.283431 53.121841,48.93774 52.948995,48.419202 52.77615,48.246357 52.77615,47.900666 52.77615,47.727819 c 0,-0.172845 0,-0.518536 0,-0.864228 0,-0.345691 0.172845,-0.518537 0.172845,-0.691383 0.172846,-0.172846 0.172846,-0.518537 0.345691,-0.691382 0.345692,-0.345692 0.691383,-0.691383 1.209921,-0.86423 0.172845,-0.172845 0.518536,-0.172845 0.691383,-0.172845 0.172845,0 0.518536,0 0.864228,0 0.345691,0 0.518537,0.172845 0.691383,0.172845 0.172846,0.172847 0.518537,0.172847 0.691382,0.345692 0.345692,0.345691 0.691383,0.691383 0.86423,1.20992 0.172845,0.172846 0.172845,0.518537 0.172845,0.691383 0,0.345692 0,0.518537 0,0.864228 z"
     id="path5"
     style="stroke-width:1.72845" /></svg>
