<?xml version="1.0" encoding="UTF-8" standalone="no"?>
<svg
   xml:space="preserve"
   version="1.1"
   style="image-rendering:optimizeQuality;shape-rendering:geometricPrecision;text-rendering:geometricPrecision"
   viewBox="0 0 120 120"
   x="0px"
   y="0px"
   fill-rule="evenodd"
   clip-rule="evenodd"
   id="svg2"
   sodipodi:docname="noun-connect-6116027.svg"
   width="120"
   height="120"
   inkscape:version="1.3 (0e150ed, 2023-07-21)"
   xmlns:inkscape="http://www.inkscape.org/namespaces/inkscape"
   xmlns:sodipodi="http://sodipodi.sourceforge.net/DTD/sodipodi-0.dtd"
   xmlns="http://www.w3.org/2000/svg"
   xmlns:svg="http://www.w3.org/2000/svg"><sodipodi:namedview
     id="namedview2"
     pagecolor="#ffffff"
     bordercolor="#000000"
     borderopacity="0.25"
     inkscape:showpageshadow="2"
     inkscape:pageopacity="0.0"
     inkscape:pagecheckerboard="0"
     inkscape:deskcolor="#d1d1d1"
     inkscape:zoom="0.56640566"
     inkscape:cx="166.84155"
     inkscape:cy="208.33125"
     inkscape:window-width="1440"
     inkscape:window-height="847"
     inkscape:window-x="0"
     inkscape:window-y="25"
     inkscape:window-maximized="0"
     inkscape:current-layer="svg2" /><defs
     id="defs1"><style
       type="text/css"
       id="style1">&#10;   &#10;    .fil0 {fill:black;fill-rule:nonzero}&#10;   &#10;  </style></defs><g
     id="g1"
     transform="matrix(0.36753326,0,0,0.36753386,-1.2530924,-0.55053104)"><path
       class="fil0"
       d="m 109.12,312.28 c -3.81,-1.78 -5.46,-6.32 -3.68,-10.13 1.78,-3.81 6.32,-5.46 10.13,-3.68 7.86,3.67 16.19,6.52 24.87,8.44 8.35,1.84 17.13,2.82 26.22,2.82 9.1,0 17.87,-0.98 26.22,-2.82 8.68,-1.92 17,-4.77 24.87,-8.44 3.81,-1.78 8.35,-0.13 10.13,3.68 1.78,3.81 0.13,8.35 -3.68,10.13 -8.87,4.14 -18.26,7.35 -28.04,9.51 -9.59,2.12 -19.47,3.24 -29.51,3.24 -10.04,0 -19.92,-1.12 -29.51,-3.24 -9.78,-2.16 -19.17,-5.37 -28.04,-9.51 z M 10.38,279 c -7.17,-12.41 -8.63,-26.54 -5.2,-39.34 3.43,-12.81 11.78,-24.32 24.2,-31.5 0.74,-0.43 1.49,-0.83 2.24,-1.22 -0.27,-2.01 -0.49,-4.03 -0.67,-6.06 -0.35,-3.99 -0.53,-8.03 -0.53,-12.09 0,-29.09 9.13,-56.06 24.69,-78.22 14.82,-21.1 35.51,-37.81 59.71,-47.78 -0.04,-0.86 -0.06,-1.72 -0.06,-2.59 0,-14.33 5.81,-27.31 15.2,-36.7 9.39,-9.39 22.37,-15.2 36.7,-15.2 14.33,0 27.31,5.81 36.7,15.2 9.39,9.39 15.2,22.37 15.2,36.7 0,14.33 -5.81,27.3 -15.2,36.7 -9.39,9.39 -22.37,15.2 -36.7,15.2 -14.33,0 -27.3,-5.81 -36.7,-15.2 C 124.68,91.62 120.53,85.2 117.91,78.05 97.62,87 80.24,101.38 67.6,119.37 53.81,139 45.72,162.94 45.72,188.8 c 0,3.64 0.16,7.24 0.47,10.78 0.07,0.8 0.15,1.59 0.24,2.39 7.49,-1.31 15.1,-0.92 22.29,1 12.81,3.43 24.32,11.77 31.5,24.2 7.17,12.41 8.63,26.54 5.2,39.35 -3.43,12.81 -11.77,24.32 -24.2,31.5 -12.41,7.17 -26.54,8.63 -39.35,5.2 -12.81,-3.43 -24.32,-11.77 -31.5,-24.2 z m 9.57,-35.4 c -2.43,9.07 -1.41,19.06 3.65,27.81 5.04,8.73 13.17,14.6 22.23,17.03 9.07,2.43 19.06,1.41 27.8,-3.65 8.73,-5.04 14.6,-13.17 17.03,-22.23 2.43,-9.07 1.41,-19.06 -3.64,-27.81 -5.04,-8.73 -13.17,-14.6 -22.23,-17.03 -6.98,-1.87 -14.5,-1.69 -21.57,0.78 -0.31,0.14 -0.65,0.26 -0.98,0.36 -1.79,0.69 -3.54,1.52 -5.25,2.5 -8.73,5.04 -14.6,13.17 -17.03,22.23 z m 303,35.4 c -7.18,12.43 -18.69,20.77 -31.5,24.2 -12.81,3.43 -26.93,1.97 -39.35,-5.2 -12.43,-7.18 -20.77,-18.69 -24.2,-31.5 -3.43,-12.81 -1.97,-26.93 5.2,-39.35 7.18,-12.43 18.69,-20.77 31.5,-24.2 7.19,-1.93 14.8,-2.31 22.29,-1 0.09,-0.8 0.17,-1.59 0.24,-2.39 0.31,-3.54 0.47,-7.14 0.47,-10.78 0,-20.11 -4.9,-39.06 -13.57,-55.73 -9.01,-17.32 -22.08,-32.19 -37.95,-43.33 -3.45,-2.43 -4.28,-7.19 -1.85,-10.64 2.43,-3.45 7.19,-4.28 10.64,-1.85 17.87,12.56 32.59,29.29 42.73,48.77 9.78,18.8 15.3,40.15 15.3,62.78 0,4.07 -0.18,8.1 -0.53,12.09 -0.18,2.03 -0.4,4.05 -0.67,6.06 0.75,0.39 1.5,0.79 2.24,1.22 12.43,7.18 20.77,18.69 24.2,31.5 3.43,12.8 1.97,26.93 -5.2,39.34 z m -35.45,9.44 c 9.06,-2.43 17.19,-8.3 22.23,-17.03 5.05,-8.75 6.07,-18.74 3.65,-27.81 -2.43,-9.06 -8.3,-17.19 -17.03,-22.23 -1.71,-0.98 -3.46,-1.81 -5.25,-2.5 -0.34,-0.1 -0.67,-0.22 -0.98,-0.36 -7.08,-2.48 -14.6,-2.65 -21.57,-0.78 -9.06,2.43 -17.19,8.3 -22.23,17.03 -5.05,8.75 -6.07,18.74 -3.64,27.81 2.43,9.06 8.3,17.19 17.03,22.23 8.75,5.05 18.73,6.07 27.8,3.65 z M 192.54,34.33 c -6.62,-6.62 -15.77,-10.72 -25.87,-10.72 -10.11,0 -19.26,4.09 -25.87,10.72 -6.62,6.62 -10.72,15.77 -10.72,25.88 0,10.1 4.09,19.25 10.72,25.87 6.62,6.62 15.77,10.72 25.87,10.72 10.11,0 19.26,-4.09 25.87,-10.72 6.62,-6.62 10.72,-15.77 10.72,-25.87 0,-10.11 -4.09,-19.26 -10.72,-25.88 z"
       id="path1" /></g></svg>
