<?xml version="1.0" encoding="UTF-8" standalone="no"?>
<svg
   version="1.1"
   x="0px"
   y="0px"
   viewBox="0 0 120 120"
   xml:space="preserve"
   id="svg2"
   sodipodi:docname="noun-learn-5743684.svg"
   width="120"
   height="120"
   inkscape:version="1.3 (0e150ed, 2023-07-21)"
   xmlns:inkscape="http://www.inkscape.org/namespaces/inkscape"
   xmlns:sodipodi="http://sodipodi.sourceforge.net/DTD/sodipodi-0.dtd"
   xmlns="http://www.w3.org/2000/svg"
   xmlns:svg="http://www.w3.org/2000/svg"><defs
     id="defs2" /><sodipodi:namedview
     id="namedview2"
     pagecolor="#ffffff"
     bordercolor="#000000"
     borderopacity="0.25"
     inkscape:showpageshadow="2"
     inkscape:pageopacity="0.0"
     inkscape:pagecheckerboard="0"
     inkscape:deskcolor="#d1d1d1"
     inkscape:zoom="0.36875"
     inkscape:cx="256.27119"
     inkscape:cy="320"
     inkscape:window-width="1440"
     inkscape:window-height="847"
     inkscape:window-x="0"
     inkscape:window-y="25"
     inkscape:window-maximized="0"
     inkscape:current-layer="svg2" /><path
     d="m 54.44299,89.58609 c 3.328435,5.76075 7.32256,5.76075 10.65099,0 z M 18.137453,73.430381 c -1.945854,0.61448 -2.893177,-2.355507 -0.92172,-2.969987 6.912902,-2.176284 14.056234,-3.635675 20.789913,-3.302831 2.048267,0.102413 1.894647,3.226021 -0.15362,3.098004 -6.324026,-0.30724 -13.185721,1.126547 -19.714573,3.174814 z m 84.542227,-2.969987 c 1.97146,0.61448 1.02414,3.584467 -0.92172,2.969987 -6.55445,-2.048267 -13.33934,-3.482054 -19.71457,-3.149211 -2.04827,0.102414 -2.20189,-2.995591 -0.15362,-3.098004 6.68247,-0.358447 13.92822,1.126547 20.78991,3.277228 z m 0,25.628946 c 1.97146,0.61448 1.02414,3.58447 -0.92172,2.96999 -6.55445,-2.04827 -13.33934,-3.48206 -19.71457,-3.14922 -2.04827,0.10242 -2.20189,-2.99559 -0.15362,-3.098 6.68247,-0.35845 13.92822,1.12655 20.78991,3.27723 z m 0,-12.80167 c 1.97146,0.61448 1.02414,3.58446 -0.92172,2.96998 -6.55445,-2.07387 -13.33934,-3.48205 -19.71457,-3.17481 -2.04827,0.10241 -2.20189,-2.99559 -0.15362,-3.098 6.68247,-0.35845 13.92822,1.12654 20.78991,3.30283 z M 18.137453,99.05933 c -1.945854,0.61448 -2.893177,-2.35551 -0.92172,-2.96999 6.912902,-2.15068 14.056234,-3.63568 20.789913,-3.30283 2.048267,0.10241 1.894647,3.22602 -0.15362,3.098 C 31.528,95.57727 24.666305,97.01106 18.137453,99.05933 Z m 0,-12.80168 c -1.945854,0.61448 -2.893177,-2.3555 -0.92172,-2.96998 6.912902,-2.17629 14.056234,-3.63568 20.789913,-3.30283 2.048267,0.10241 1.894647,3.22602 -0.15362,3.098 C 31.528,82.75 24.666305,84.20939 18.137453,86.25765 Z M 58.02746,63.470682 c 0,2.048267 -3.12361,2.048267 -3.12361,0 V 48.415917 c -3.942914,0.921721 -7.732208,-2.048267 -7.732208,-6.119198 0,-4.839032 5.530321,-8.295483 10.164526,-4.941445 0.409653,0.281637 0.691292,0.742497 0.691292,1.280167 z M 54.929454,45.317913 v -5.837562 c -3.149211,-1.61301 -6.170405,2.432318 -3.763691,4.992652 1.484993,1.61301 3.149211,0.7681 3.763691,0.84491 z m 9.678066,18.152769 c 0,2.048267 -3.12361,2.048267 -3.12361,0 V 38.661044 c 0,-0.53767 0.28164,-1.024133 0.69129,-1.280167 4.6342,-3.379641 10.13892,0.07681 10.13892,4.941445 0,4.070931 -3.78929,7.040919 -7.73221,6.119199 v 15.029161 z m 0,-23.990331 v 5.837562 c 0.61448,-0.07681 2.27869,0.7681 3.76369,-0.819307 2.40671,-2.585937 -0.61448,-6.605662 -3.76369,-5.018255 z m 5.45351,33.156327 c 1.68982,0.256033 2.79076,1.5362 3.27723,3.123607 v 0 c 0.38405,1.203357 0.38405,2.534731 0,3.738085 v 0 c -0.17923,0.58888 -0.43526,1.12655 -0.79371,1.58741 0.33285,0.46086 0.61448,0.99853 0.79371,1.58741 v 0 c 0.38405,1.20335 0.38405,2.53473 0,3.76369 v 0 c -0.53767,1.76663 -1.84344,3.14921 -3.89171,3.14921 h -0.81931 c -1.61301,3.30283 -3.94291,6.34963 -7.09212,7.19454 v 19.61216 c 12.54563,-3.0468 24.70722,-3.0468 37.20165,0 v -9.1404 c 0,-0.87051 0.69129,-1.5618 1.5618,-1.5618 h 9.57565 V 61.089571 C 100.96426,56.173729 90.62051,54.176669 80.50719,55.200803 77.15315,60.705521 72.18611,67.080753 70.06103,72.636678 Z M 46.992418,81.08578 c -0.332843,-0.46086 -0.61448,-0.99853 -0.793703,-1.58741 v 0 c -0.384051,-1.203354 -0.384051,-2.534728 0,-3.738085 v 0 c 0.486463,-1.587407 1.561803,-2.841971 3.251624,-3.123607 C 47.350865,67.183166 42.281403,60.654314 39.004176,55.175199 29.018873,54.227876 18.828743,56.25054 10.046798,61.089571 v 55.303219 c 15.029161,-3.68688 31.773745,-4.09654 48.339102,0 V 96.85744 c -3.32843,-0.7169 -5.811954,-3.89171 -7.450567,-7.29695 h -0.819307 c -2.073871,0 -3.354038,-1.38258 -3.891708,-3.14922 v 0 c -0.53767,-1.71542 -0.30724,-3.8405 0.7681,-5.32549 z M 69.42094,75.709078 H 50.116026 c -1.408184,0 -1.408184,3.814902 0,3.814902 H 69.42094 c 1.40819,0.0256 1.40819,-3.814902 0,-3.814902 z M 50.116026,86.46248 H 69.42094 c 1.40819,0 1.40819,-3.8149 0,-3.8149 H 50.116026 c -1.408184,0 -1.408184,3.8149 0,3.8149 z M 58.20668,1.5362003 c 0,-2.04826705 3.12361,-2.04826705 3.12361,0 v 7.885829 c 0,2.0482677 -3.12361,2.0482677 -3.12361,0 z M 20.800201,39.838798 c -2.048268,0 -2.048268,-3.098004 0,-3.098004 h 7.885829 c 2.048267,0 2.048267,3.098004 0,3.098004 z M 31.732827,12.468827 C 30.29904,11.03504 32.475324,8.8075493 33.934714,10.26694 l 5.555925,5.581528 c 1.433787,1.433787 -0.742497,3.661278 -2.201887,2.201887 z M 99.09522,36.715191 c 2.04826,0 2.04826,3.123607 0,3.123607 h -7.88583 c -2.04827,0 -2.04827,-3.123607 0,-3.123607 z M 85.29502,10.548576 c 1.45939,-1.4593897 3.66127,0.742497 2.20188,2.201888 l -5.58153,5.581528 c -1.43378,1.433787 -3.66127,-0.742497 -2.20188,-2.201887 z m -7.14334,42.501546 c 0.0256,-0.05121 0.0768,-0.128017 0.10242,-0.179223 1.5874,-2.688351 2.79076,-5.248685 3.14921,-7.527383 2.20189,-14.03063 -6.75928,-26.857904 -21.63482,-26.857904 -14.875546,0 -23.862318,12.852877 -21.660431,26.857904 1.203357,7.552986 11.598313,18.152769 14.645111,27.267558 H 66.7582 C 68.93448,66.082222 74.49041,59.24613 78.15168,53.050122 Z m 4.17335,-1.100944 c 4.71101,-0.281636 9.47323,0.05121 14.10744,0.972927 5.47911,1.100944 10.80461,3.072401 15.66924,5.863165 0.51207,0.256034 0.89612,0.793704 0.89612,1.408184 V 107.278 c 0,0.43525 -0.15362,0.8193 -0.46086,1.12654 L 101.39952,119.542 c -0.40966,0.40965 -0.99853,0.56327 -1.58741,0.38405 -6.58006,-1.76663 -13.0321,-2.66275 -19.53535,-2.66275 -6.50325,0 -13.0577,0.87051 -19.79138,2.66275 h -0.97293 c -8.909961,-2.38111 -17.384667,-3.30283 -25.142479,-3.30283 -9.882889,0 -18.588025,1.48499 -25.424117,3.30283 C 7.972927,120.18208 7,119.43958 7,118.41545 v 0 -58.221996 C 7,59.55337 7.38405,59.0157 7.92172,58.759667 c 4.787825,-2.739558 10.03651,-4.685411 15.438815,-5.811958 4.557394,-0.947324 9.242806,-1.280167 13.928217,-1.049737 -1.920251,-3.814898 -2.534731,-6.784886 -2.534731,-10.80461 0,-16.437345 13.339341,-27.958848 29.392639,-25.424117 14.54269,2.3043 22.65895,15.950881 20.43146,30.135132 -0.40965,1.99706 -1.20335,4.045327 -2.25309,6.144801 z m 19.48414,62.702582 5.81196,-5.81196 h -5.81196 z"
     id="path1"
     style="stroke-width:0.256033" /></svg>
