<?xml version="1.0" encoding="UTF-8" standalone="no"?>
<svg
   viewBox="0 0 120 120"
   version="1.1"
   x="0px"
   y="0px"
   id="svg2"
   sodipodi:docname="noun-trust-4398543.svg"
   width="120"
   height="120"
   inkscape:version="1.3 (0e150ed, 2023-07-21)"
   xmlns:inkscape="http://www.inkscape.org/namespaces/inkscape"
   xmlns:sodipodi="http://sodipodi.sourceforge.net/DTD/sodipodi-0.dtd"
   xmlns="http://www.w3.org/2000/svg"
   xmlns:svg="http://www.w3.org/2000/svg">
  <defs
     id="defs2" />
  <sodipodi:namedview
     id="namedview2"
     pagecolor="#ffffff"
     bordercolor="#000000"
     borderopacity="0.25"
     inkscape:showpageshadow="2"
     inkscape:pageopacity="0.0"
     inkscape:pagecheckerboard="0"
     inkscape:deskcolor="#d1d1d1"
     inkscape:zoom="5.2833333"
     inkscape:cx="59.905363"
     inkscape:cy="60"
     inkscape:window-width="1440"
     inkscape:window-height="847"
     inkscape:window-x="0"
     inkscape:window-y="25"
     inkscape:window-maximized="0"
     inkscape:current-layer="svg2" />
  <g
     transform="matrix(4.6279794,0,0,4.6279794,605.09805,-911.58643)"
     id="g1">
    <path
       style="color:#000000;font-style:normal;font-variant:normal;font-weight:normal;font-stretch:normal;font-size:medium;line-height:normal;font-family:sans-serif;font-variant-ligatures:normal;font-variant-position:normal;font-variant-caps:normal;font-variant-numeric:normal;font-variant-alternates:normal;font-feature-settings:normal;text-indent:0;text-align:start;text-decoration:none;text-decoration-line:none;text-decoration-style:solid;text-decoration-color:#000000;letter-spacing:normal;word-spacing:normal;text-transform:none;writing-mode:lr-tb;direction:ltr;text-orientation:mixed;dominant-baseline:auto;baseline-shift:baseline;text-anchor:start;white-space:normal;shape-padding:0;clip-rule:nonzero;display:inline;overflow:visible;visibility:visible;opacity:1;isolation:auto;mix-blend-mode:normal;color-interpolation:sRGB;color-interpolation-filters:linearRGB;solid-color:#000000;solid-opacity:1;vector-effect:none;fill:#000000;fill-opacity:1;fill-rule:nonzero;stroke:none;stroke-width:1.29646;stroke-linecap:round;stroke-linejoin:round;stroke-miterlimit:4;stroke-dasharray:none;stroke-dashoffset:86.9572;stroke-opacity:1;color-rendering:auto;image-rendering:auto;shape-rendering:auto;text-rendering:auto;enable-background:accumulate"
       d="m -117.80037,196.97288 c -7.0396,0 -12.75241,5.71229 -12.75241,12.75156 0,0.43995 0.0226,0.87499 0.0662,1.30362 0.0436,0.42865 0.10806,0.85098 0.19297,1.26609 0.0849,0.41509 0.19011,0.82281 0.31431,1.22217 a 0.27016324,0.27016324 0 1 0 0.51591,-0.16037 c -0.11889,-0.3823 -0.21967,-0.77285 -0.301,-1.17027 -0.0813,-0.39742 -0.14336,-0.80172 -0.18505,-1.21226 -0.0417,-0.41055 -0.063,-0.82728 -0.063,-1.24898 0,-6.74731 5.46444,-12.21125 12.21212,-12.21125 6.74764,-2e-5 12.21165,5.46394 12.21166,12.21125 0,0.4217 -0.0213,0.83843 -0.063,1.24898 -0.0417,0.41054 -0.10372,0.81484 -0.18504,1.21226 -0.0814,0.39742 -0.18209,0.78797 -0.30102,1.17027 a 0.27016223,0.27016223 0 1 0 0.51592,0.16037 c 0.12418,-0.39934 0.22937,-0.80708 0.31432,-1.22217 0.0849,-0.41511 0.14985,-0.83744 0.19339,-1.26609 0.0435,-0.42863 0.0657,-0.86367 0.0657,-1.30362 0,-7.03927 -5.7124,-12.75156 -12.75197,-12.75156 z m -1.71121,2.67448 c -0.0761,-9.8e-4 -0.15137,0.004 -0.22558,0.0148 -0.39034,0.0548 -0.74681,0.25967 -0.99237,0.56784 -0.3735,0.004 -0.74209,0.14106 -1.01825,0.41748 -0.31083,0.31115 -0.44228,0.7295 -0.41127,1.15214 -0.19546,-0.0849 -0.40501,-0.12784 -0.61468,-0.12784 -0.39403,0 -0.78785,0.15 -1.08744,0.44988 -0.37164,0.37202 -0.51257,0.88925 -0.42318,1.37158 -0.0933,-0.0173 -0.18798,-0.0261 -0.28265,-0.0261 -0.39405,0 -0.78788,0.14988 -1.08746,0.44977 -0.59916,0.59977 -0.59916,1.57714 0,2.17691 l 0.14593,0.14602 c -0.36129,0.0225 -0.71613,0.17112 -0.99124,0.4465 -0.59917,0.59977 -0.59917,1.57672 0,2.17648 l 1.2321,1.23327 c -0.73406,0.8673 -0.97841,2.11489 -0.58596,3.13552 l -1.62344,1.62511 c -0.18844,-0.11714 -0.40341,-0.17599 -0.61859,-0.17599 -0.30013,0 -0.60017,0.11389 -0.82779,0.34174 l -1.28842,1.28918 c -0.45526,0.45571 -0.45526,1.20116 0,1.65686 l 4.49042,4.49487 c 0.45525,0.45571 1.20045,0.45571 1.65571,0 l 1.288,-1.2896 c 0.39094,-0.39133 0.44579,-0.99582 0.16534,-1.44744 l 1.27789,-1.27915 c 0.3418,0.88633 0.97587,1.60812 1.59609,2.14884 0.91107,0.79425 1.82282,1.22261 1.82282,1.22261 a 0.27012223,0.27012223 0 0 0 0.23001,0 c 0,0 0.91178,-0.42836 1.82283,-1.22261 0.60397,-0.52654 1.22128,-1.22477 1.56897,-2.07942 l 1.305,1.3066 c -0.28047,0.45161 -0.22561,1.0562 0.16533,1.44753 l 1.28802,1.2896 c 0.45525,0.45572 1.20047,0.4557 1.65569,0 l 4.49045,-4.49487 c 0.45526,-0.4557 0.45526,-1.20116 0,-1.65687 l -1.28801,-1.28917 c -0.22763,-0.22786 -0.52808,-0.34184 -0.82823,-0.34184 -0.21509,0 -0.42997,0.0589 -0.61836,0.17587 l -1.621,-1.62235 c 0.40991,-1.01336 0.13081,-2.21581 -0.57195,-3.10589 l 0.41792,-0.40462 a 0.2701222,0.2701222 0 0 0 0.004,-0.003 l 0.56657,-0.56709 c 0.59917,-0.59977 0.59917,-1.57703 0,-2.1768 -0.29959,-0.29988 -0.69371,-0.44977 -1.08776,-0.44977 -0.0945,0 -0.18903,0.009 -0.28223,0.026 0.0892,-0.48221 -0.0516,-0.99925 -0.42319,-1.37116 -0.29958,-0.29988 -0.69382,-0.44977 -1.08787,-0.44977 -0.0945,0 -0.18902,0.009 -0.28223,0.0261 0.0894,-0.4823 -0.0516,-0.99948 -0.42319,-1.37148 -0.29958,-0.29988 -0.69371,-0.44977 -1.08775,-0.44977 -0.0945,0 -0.18903,0.009 -0.28224,0.026 0.0892,-0.48219 -0.0516,-0.99925 -0.42317,-1.37116 -0.2996,-0.29987 -0.69341,-0.44977 -1.08746,-0.44977 -0.008,0 -0.0152,4e-4 -0.0228,5e-4 -0.0284,-0.0735 -0.0622,-0.14505 -0.10143,-0.21312 -0.0983,-0.17033 -0.22927,-0.32168 -0.38721,-0.44459 -0.151,-0.11754 -0.32717,-0.20821 -0.52118,-0.26397 a 0.2701222,0.2701222 0 0 0 -0.0267,-0.008 l -2.27292,-0.60972 c -0.12797,-0.0343 -0.25654,-0.0515 -0.38329,-0.0527 z m -0.057,0.53956 c 0.0984,-0.004 0.19942,0.008 0.30038,0.0345 l 2.27291,0.60973 c 0.13461,0.0362 0.25389,0.0972 0.35608,0.17671 0.10224,0.0795 0.18697,0.17763 0.25079,0.28825 0.009,0.0163 0.0173,0.0335 0.0259,0.0502 -0.19009,0.0749 -0.36825,0.18874 -0.52151,0.34215 l -0.97825,0.97909 -1.92232,-0.51571 c -0.53839,-0.1444 -0.8502,-0.68447 -0.70583,-1.22376 0.11728,-0.43818 0.49546,-0.72617 0.92192,-0.74128 z m -1.4505,0.63092 c -0.20008,0.80992 0.28549,1.63877 1.09441,1.85575 l 2.07393,0.55633 a 0.27012472,0.27012472 0 0 0 0.001,5e-4 l 0.12729,0.0341 0.96917,0.97023 c 0.47803,0.47852 0.50761,1.16112 0.12797,1.54113 -0.37963,0.38002 -1.0612,0.35054 -1.53922,-0.12797 l -3.08207,-3.08542 c -0.47025,-0.47809 -0.49752,-1.15557 -0.12011,-1.53342 0.0994,-0.0994 0.21724,-0.1691 0.34669,-0.21123 z m 5.22264,0.95641 c 0.25425,0 0.5085,0.0986 0.70563,0.29595 0.39428,0.39466 0.39428,1.01859 0,1.41325 l -0.27874,0.27917 a 0.27012456,0.27012456 0 0 0 0.38203,0.38193 l 0.27874,-0.27907 c 0.39428,-0.39466 1.01688,-0.39466 1.41116,0 0.39425,0.39467 0.39425,1.01849 0,1.41315 l -0.27875,0.27917 a 0.2701222,0.2701222 0 1 0 0.38203,0.38162 l 0.27874,-0.27918 c 0.39428,-0.39465 1.01699,-0.39465 1.41125,0 0.39427,0.39466 0.39428,1.0186 0,1.41326 l -0.27916,0.27916 a 0.27014677,0.27014677 0 1 0 0.38246,0.38163 l 0.27874,-0.27876 c 0.39426,-0.39467 1.01688,-0.39465 1.41114,0 0.39426,0.39467 0.39426,1.01848 0,1.41315 l -0.56351,0.56404 -0.003,0.003 -3.73207,3.61254 v -0.43522 a 0.27012223,0.27012223 0 0 0 -0.2703,-0.26999 h -3.52032 -3.52073 a 0.27012223,0.27012223 0 0 0 -0.26988,0.26999 v 4.48052 c 0,0.26539 0.029,0.52027 0.081,0.76482 l -1.46242,1.46389 -2.0465,-2.04851 -2.05463,-2.05694 1.72323,-1.72523 a 0.27024478,0.27024478 0 0 0 0.0245,-0.0259 0.2701222,0.2701222 0 0 0 0.0223,-0.31873 c -0.36318,-0.80797 -0.18404,-1.91821 0.41982,-2.66666 l 0.43352,0.43394 c 0.59916,0.59977 1.57605,0.59977 2.17522,0 0.27498,-0.27526 0.4234,-0.63001 0.44597,-0.99133 l 0.14497,0.14518 c 0.59916,0.59976 1.57647,0.59976 2.17563,0 0.37151,-0.37189 0.51248,-0.88887 0.4233,-1.37106 0.48171,0.0891 0.99819,-0.052 1.36957,-0.4237 0.45914,-0.45962 0.56604,-1.1408 0.32147,-1.70404 0.42246,0.0313 0.84071,-0.10034 1.15161,-0.41147 0.6138,-0.61441 0.52923,-1.64721 -0.1281,-2.3052 l -0.9561,-0.95704 0.82453,-0.82548 c 0.19712,-0.19733 0.45139,-0.29594 0.70562,-0.29594 z m -6.97732,0.43352 c 0.25422,0 0.50861,0.0986 0.70575,0.29595 l 3.12149,3.12457 0.40081,0.40122 c 1.4e-4,1.5e-4 2.1e-4,2e-4 4.3e-4,4.2e-4 l 0.44777,0.44819 c 0.39426,0.39465 0.39426,1.01858 0,1.41324 -0.39427,0.39467 -1.01656,0.39467 -1.41082,0 l -3.97084,-3.9745 c -0.39427,-0.39467 -0.39427,-1.01849 0,-1.41315 0.19712,-0.19734 0.45121,-0.29595 0.7054,-0.29595 z m -1.79326,1.79487 c 0.25419,0 0.50868,0.0984 0.70582,0.29585 l 3.9705,3.97493 c 0.39427,0.39466 0.39427,1.01849 0,1.41315 -0.39426,0.39465 -1.01655,0.39465 -1.41082,0 l -3.97093,-3.97484 c -0.39427,-0.39466 -0.39427,-1.01859 0,-1.41324 0.19714,-0.19734 0.45123,-0.29585 0.70543,-0.29585 z m -0.84502,2.76942 c 0.2542,0 0.50828,0.0986 0.70542,0.29585 l 2.04924,2.05167 c 0.39426,0.39466 0.39426,1.01848 0,1.41315 -0.39426,0.39465 -1.01656,0.39465 -1.41082,0 l -2.04924,-2.05157 c -0.39427,-0.39467 -0.39427,-1.0186 0,-1.41325 0.19714,-0.19733 0.45121,-0.29585 0.7054,-0.29585 z m 14.70405,3.83166 c 0.59565,0.78609 0.7937,1.83654 0.4138,2.63481 a 0.2701222,0.2701222 0 0 0 -0.0451,0.15962 0.2701222,0.2701222 0 0 0 0.1151,0.21724 l 1.69642,1.69844 -2.0544,2.05663 -2.04672,2.04871 -1.47972,-1.4812 c 0.0632,-0.26861 0.0987,-0.55008 0.0987,-0.84435 v -3.2937 z m -10.34314,2.27935 h 3.25073 3.2503 v 4.21055 c 0,1.29899 -0.81838,2.35487 -1.66762,3.09521 -0.75727,0.66019 -1.42809,1.0007 -1.58312,1.07744 -0.15535,-0.0769 -0.82566,-0.41746 -1.58269,-1.07744 -0.84923,-0.74034 -1.6676,-1.79622 -1.6676,-3.09521 z m 5.17515,2.03765 a 0.27012223,0.27012223 0 0 0 -0.18548,0.0826 l -2.44721,2.46831 -1.03111,-1.03997 a 0.27012223,0.27012223 0 1 0 -0.38362,0.38003 l 1.22302,1.23379 a 0.27012223,0.27012223 0 0 0 0.38351,0 l 2.63903,-2.66213 a 0.27012223,0.27012223 0 0 0 -0.19814,-0.46263 z m -12.21971,0.29552 c 0.1603,0 0.32071,0.0626 0.44587,0.18779 l 2.24496,2.24739 2.24148,2.2439 0.004,0.004 c 0.25035,0.2506 0.25035,0.64262 0,0.89322 l -1.28802,1.28919 c -0.25034,0.2506 -0.64128,0.2506 -0.89163,0 l -4.49003,-4.49488 c -0.25033,-0.25059 -0.25033,-0.6422 0,-0.8928 l 1.28803,-1.28959 c 0.12512,-0.12526 0.28547,-0.18781 0.44576,-0.18781 z m 20.59012,0.0968 c 0.16028,0 0.32069,0.0626 0.44587,0.1879 l 1.28792,1.28961 c 0.25034,0.25059 0.25035,0.64261 0,0.8932 l -4.49002,4.49446 c -0.25034,0.2506 -0.64129,0.2506 -0.89163,0 l -1.28802,-1.28928 c -0.25035,-0.25059 -0.25035,-0.64262 0,-0.89321 l 2.24527,-2.24739 2.24159,-2.2438 0.004,-0.004 c 0.12512,-0.12526 0.28516,-0.18791 0.44545,-0.18791 z"
       id="path1" />
  </g>
</svg>
